<svg width="30" height="30" viewBox="0 0 30 30" fill="none" xmlns="http://www.w3.org/2000/svg">
<path d="M0 3C0 1.34315 1.34315 0 3 0H27C28.6569 0 30 1.34315 30 3V27C30 28.6569 28.6569 30 27 30H3C1.34315 30 0 28.6569 0 27V3Z" fill="#F7F6F3"/>
<path fill-rule="evenodd" clip-rule="evenodd" d="M5.66749 15.125C4.19428 15.125 3 16.3192 3 17.7925L3 24.5824C3 26.0557 4.19428 27.2499 5.66749 27.2499L12.5447 27.2499C14.0179 27.2499 15.2121 26.0557 15.2121 24.5824V17.7925C15.2121 16.3192 16.4065 15.125 17.8796 15.125H24.5824C26.0556 15.125 27.2499 13.9307 27.2499 12.4575V5.66749C27.2499 4.19431 26.0556 3 24.5824 3L17.7052 3C16.232 3 15.0377 4.19431 15.0377 5.66749V12.4575C15.0377 13.9307 13.8435 15.125 12.3702 15.125H5.66749Z" fill="#262421"/>
</svg>
